<svg width="29" height="50" viewBox="0 0 29 50" fill="none" xmlns="http://www.w3.org/2000/svg">
<path fill-rule="evenodd" clip-rule="evenodd" d="M3.51143 0.0966461C3.20861 0.215248 0.343601 3.0475 0.142853 3.42673C-0.0332028 3.75921 -0.0496323 4.45166 0.110869 4.7682C0.17435 4.89331 4.69473 9.46871 10.1562 14.9359L20.0861 24.8761L10.1562 34.8162C4.69473 40.2834 0.17435 44.8588 0.110869 44.9839C-0.0496323 45.3004 -0.0332028 45.9929 0.142853 46.3254C0.35828 46.7322 3.22096 49.5413 3.54206 49.661C3.95794 49.816 4.45179 49.7836 4.85202 49.5752C5.24671 49.3697 28.6896 25.9505 28.8853 25.5663C29.0382 25.266 29.0382 24.4861 28.8853 24.1858C28.6896 23.8016 5.24671 0.382457 4.85202 0.176945C4.4656 -0.0242888 3.90574 -0.0578279 3.51143 0.0966461Z" fill="#1346CC"/>
</svg>
