<svg width="29" height="50" viewBox="0 0 29 50" fill="none" xmlns="http://www.w3.org/2000/svg">
<path fill-rule="evenodd" clip-rule="evenodd" d="M25.4886 0.0966461C25.7914 0.215248 28.6564 3.0475 28.8571 3.42673C29.0332 3.75921 29.0496 4.45166 28.8891 4.7682C28.8256 4.89331 24.3053 9.46871 18.8438 14.9359L8.91387 24.8761L18.8438 34.8162C24.3053 40.2834 28.8256 44.8588 28.8891 44.9839C29.0496 45.3004 29.0332 45.9929 28.8571 46.3254C28.6417 46.7322 25.779 49.5413 25.4579 49.661C25.0421 49.816 24.5482 49.7836 24.148 49.5752C23.7533 49.3697 0.310383 25.9505 0.114689 25.5663C-0.038229 25.266 -0.038229 24.4861 0.114689 24.1858C0.310383 23.8016 23.7533 0.382457 24.148 0.176945C24.5344 -0.0242888 25.0943 -0.0578279 25.4886 0.0966461Z" fill="#1346CC"/>
</svg>
