<svg width="25" height="25" viewBox="0 0 25 25" fill="none" xmlns="http://www.w3.org/2000/svg">
<path fill-rule="evenodd" clip-rule="evenodd" d="M2.60632 0.788906C1.61096 0.936604 0.750696 1.5689 0.318149 2.47061C0.0638642 3.00081 -4.87978e-05 3.28405 2.79467e-08 3.88002C0.000244157 5.24499 0.580636 6.66055 1.54578 7.65C2.5261 8.65494 3.65012 9.19436 5.06914 9.34074L5.62195 9.39777L5.92066 9.79307C6.30307 10.2991 7.19023 11.1848 7.67981 11.5493C8.36879 12.0622 9.20015 12.5181 9.87448 12.7526L10.2036 12.8671L10.2163 15.1653L10.229 17.4634H12.4994H14.7698L14.7824 15.168L14.7951 12.8726L15.1242 12.7561C16.5742 12.2427 18.063 11.1227 19.0927 9.77065L19.3737 9.40178L19.9435 9.3424C20.5742 9.27664 21.0629 9.15691 21.5931 8.93827C23.0484 8.3382 24.2519 7.02801 24.7283 5.5255C24.9983 4.67363 25.0742 3.72788 24.9238 3.08977C24.6842 2.07337 23.8875 1.23376 22.826 0.879136L22.4842 0.764982L12.6702 0.75839C7.27255 0.754777 2.74381 0.768497 2.60632 0.788906ZM3.56428 2.80346C3.56443 4.06316 3.90465 5.84853 4.36673 7.01434C4.46243 7.25583 4.54075 7.46891 4.54075 7.48776C4.54075 7.50665 4.42435 7.48204 4.28207 7.43307C3.00728 6.99452 2.05918 5.90731 1.78224 4.56656C1.50569 3.2278 2.03838 2.47852 3.28349 2.45484L3.56423 2.44947L3.56428 2.80346ZM22.4962 2.59605C23.1793 2.89774 23.4209 3.55225 23.219 4.55406C22.9757 5.76128 22.2489 6.70078 21.1171 7.27097C20.7931 7.43419 20.458 7.54083 20.458 7.48068C20.458 7.45934 20.5101 7.32375 20.5739 7.17942C21.0243 6.16018 21.3529 4.59571 21.4175 3.16296L21.4503 2.43609L21.8572 2.4648C22.1087 2.48253 22.3527 2.53267 22.4962 2.59605ZM13.54 2.61621C13.61 2.68105 13.6798 2.78539 13.6952 2.84813C13.7105 2.91083 13.7169 4.58204 13.7094 6.56197L13.6956 10.1617L13.5602 10.2971C13.4355 10.4219 13.39 10.4339 12.978 10.4499C12.4501 10.4704 12.2022 10.4084 12.0775 10.2246C11.9923 10.0991 11.9858 9.93447 11.9728 7.58848L11.9589 5.08626L11.6066 5.35006C10.4447 6.22004 9.91159 6.1782 9.91159 5.21716C9.91159 4.77236 9.96949 4.6855 10.4506 4.40807C10.8915 4.15388 11.4716 3.71699 11.6735 3.48697C11.7605 3.38795 11.9274 3.15886 12.0445 2.97786C12.3407 2.51993 12.3812 2.4983 12.9425 2.4983C13.372 2.4983 13.4238 2.5085 13.54 2.61621ZM8.34867 18.4277C8.01202 18.6568 7.98473 18.736 7.96637 19.5371L7.94981 20.2612L7.12769 20.2783C6.23085 20.2969 6.17216 20.3142 5.93531 20.6315C5.83873 20.7609 5.83463 20.8274 5.83463 22.2727C5.83463 23.7181 5.83873 23.7846 5.93531 23.914C5.99068 23.9882 6.09663 24.0941 6.1708 24.1495C6.30531 24.2499 6.31991 24.2502 12.4994 24.2502C18.6788 24.2502 18.6934 24.2499 18.8279 24.1495C18.9021 24.0941 19.008 23.9882 19.0634 23.914C19.16 23.7846 19.1641 23.7181 19.1641 22.2727C19.1641 20.8274 19.16 20.7609 19.0634 20.6315C18.8263 20.314 18.7683 20.2969 17.8667 20.2782L17.0401 20.261V19.5978C17.0401 18.8126 16.9711 18.6021 16.6551 18.4245L16.4654 18.3179H12.4877H8.51009L8.34867 18.4277Z" fill="black"/>
</svg>
