<svg width="25" height="22" viewBox="0 0 25 22" fill="none" xmlns="http://www.w3.org/2000/svg">
<path fill-rule="evenodd" clip-rule="evenodd" d="M11.7192 0.0279146C9.16177 0.224034 6.81082 1.3135 4.98572 3.14836C3.55906 4.58263 2.59525 6.30355 2.1283 8.2504C1.99035 8.82549 1.86201 9.76392 1.86201 10.1974V10.5047L1.48382 10.691C0.799671 11.028 0.280947 11.6686 0.0796548 12.4248C-0.0280915 12.8298 -0.0258468 18.6172 0.0822411 19.0323C0.25767 19.7057 0.767416 20.3867 1.33889 20.7111C1.83341 20.9917 2.01855 21.0225 3.35938 21.0476L4.58831 21.0706L4.60788 15.5632C4.6252 10.6793 4.63677 10.0007 4.70982 9.56795C5.07566 7.40122 6.13111 5.63023 7.80762 4.37012C9.17651 3.34121 10.7744 2.80995 12.5 2.80995C16.3199 2.80995 19.5644 5.55098 20.2386 9.34772C20.3784 10.1351 20.4032 11.1453 20.4043 16.0996L20.4053 21.0697L21.6375 21.0479C22.9823 21.0241 23.1623 20.9941 23.6611 20.7111C24.2326 20.3867 24.7423 19.7057 24.9178 19.0323C25.0258 18.6172 25.0281 12.8298 24.9203 12.4248C24.7181 11.665 24.1826 11.0048 23.509 10.6849L23.138 10.5087L23.1376 10.2335C23.1374 10.0822 23.1151 9.7607 23.0881 9.51915C22.6882 5.93976 20.4445 2.73367 17.2051 1.11236C15.5451 0.281567 13.5512 -0.112575 11.7192 0.0279146ZM6.01131 10.6917C5.78572 10.7931 5.67875 10.8954 5.55329 11.1295L5.44867 11.3247V15.8141C5.44867 20.2599 5.44965 20.3054 5.54968 20.4961C5.83315 21.0365 6.5316 21.1867 6.9701 20.8017C7.34804 20.4699 7.3251 20.7911 7.32632 15.8123L7.3274 11.3698L7.2176 11.1549C7.04822 10.8233 6.79887 10.651 6.4605 10.6316C6.28039 10.6213 6.12028 10.6427 6.01131 10.6917ZM18.221 10.6978C18.005 10.8043 17.7863 11.0636 17.7243 11.2868C17.653 11.5436 17.6536 20.0866 17.7249 20.3436C17.7922 20.5857 18.0719 20.8928 18.2913 20.9652C18.3864 20.9966 18.5828 21.0125 18.7277 21.0004C19.0416 20.9744 19.3027 20.7929 19.4537 20.4956C19.5492 20.3077 19.5513 20.207 19.5513 15.8141V11.3247L19.4467 11.1295C19.3892 11.0221 19.3006 10.8967 19.2498 10.8508C18.9995 10.6244 18.5158 10.5525 18.221 10.6978Z" fill="#1346CC"/>
</svg>
