<svg width="129" height="129" viewBox="0 0 129 129" fill="none" xmlns="http://www.w3.org/2000/svg">
<path d="M82.254 15.3142C99.6122 15.3142 113.684 29.3858 113.684 46.744C113.684 64.1022 99.6122 78.1738 82.254 78.1738C64.8958 78.1738 50.8242 64.1022 50.8242 46.744C50.8242 29.3858 64.8958 15.3142 82.254 15.3142Z" fill="#7288FF"/>
<path d="M82.2507 68.8627C94.466 68.8627 104.369 58.9602 104.369 46.7448C104.369 34.5295 94.466 24.627 82.2507 24.627C70.0353 24.627 60.1328 34.5295 60.1328 46.7448C60.1328 58.9602 70.0353 68.8627 82.2507 68.8627Z" fill="#465FE7"/>
<path d="M70.9375 46.7446L82.2524 35.4297L93.5673 46.7446L82.2524 58.0595L70.9375 46.7446Z" fill="#7288FF"/>
<path d="M46.1447 51.4255C63.5029 51.4255 77.5745 65.4971 77.5745 82.8553C77.5745 100.214 63.5029 114.285 46.1447 114.285C28.7865 114.285 14.7148 100.214 14.7148 82.8553C14.7148 65.4971 28.7865 51.4255 46.1447 51.4255Z" fill="#0B30F1"/>
<path d="M46.1413 60.7408C58.3567 60.7408 68.2592 70.6433 68.2592 82.8587C68.2592 95.0741 58.3567 104.977 46.1413 104.977C33.9259 104.977 24.0234 95.0741 24.0234 82.8587C24.0234 70.6433 33.9259 60.7408 46.1413 60.7408Z" fill="#001FBF"/>
<path d="M34.8242 82.8559L46.1391 94.1709L57.4541 82.8559L46.1391 71.541L34.8242 82.8559Z" fill="#0B30F1"/>
<path d="M80.2461 112.951H112.345V80.8516L80.2461 112.951Z" fill="#001FBF"/>
<path d="M16.0508 16.6523H48.1499L16.0508 48.7514V16.6523Z" fill="#465FE7"/>
</svg>
