<svg width="129" height="129" viewBox="0 0 129 129" fill="none" xmlns="http://www.w3.org/2000/svg">
<g clip-path="url(#clip0_516_113)">
<path d="M8.02344 66.0099H120.37V104.797H8.02344V66.0099ZM18.7221 41.9355H50.8211V63.336H18.7221V41.9355Z" fill="#0B30F1"/>
<path d="M18.7227 74.0352V90.0847H50.8217V74.0352H41.46L34.7706 80.723L28.086 74.0352H18.7243H18.7227Z" fill="#001FBF"/>
<path fill-rule="evenodd" clip-rule="evenodd" d="M8.02477 24.5508H120.372V63.3377H128.396V68.687H0V63.3377H8.02477V24.5508ZM18.7234 63.3377H50.8225V41.9373H18.7234V63.3377Z" fill="#7288FF"/>
<path d="M60.1875 41.9355H85.5987V47.2865H60.1875V41.9355Z" fill="#465FE7"/>
<path d="M60.1875 57.9844H109.673V63.3353H60.1875V57.9844Z" fill="#465FE7"/>
<path d="M60.1875 74.0352H109.673V79.3845H60.1875V74.0352ZM60.1875 84.7354H109.673V90.0847H60.1875V84.7354Z" fill="#001FBF"/>
<path d="M43.2309 63.3359C43.9072 61.9087 44.2115 60.3337 44.1156 58.7573C44.0196 57.1809 43.5265 55.6544 42.6821 54.3198C41.8376 52.9852 40.6694 51.8859 39.2859 51.1241C37.9025 50.3624 36.3489 49.9629 34.7696 49.9629C33.1903 49.9629 31.6366 50.3624 30.2532 51.1241C28.8697 51.8859 27.7015 52.9852 26.8571 54.3198C26.0126 55.6544 25.5195 57.1809 25.4236 58.7573C25.3276 60.3337 25.6319 61.9087 26.3082 63.3359H43.2309Z" fill="#465FE7"/>
</g>
<defs>
<clipPath id="clip0_516_113">
<rect width="128.396" height="128.396" fill="white" transform="translate(0 0.476562)"/>
</clipPath>
</defs>
</svg>
