<svg width="129" height="129" viewBox="0 0 129 129" fill="none" xmlns="http://www.w3.org/2000/svg">
<path d="M48.1484 72.5723L64.198 88.6218L80.2475 72.5723V112.696H48.1484V72.5723Z" fill="#0B30F1"/>
<path d="M64.1954 61.8732C50.9 61.8732 40.1211 51.0944 40.1211 37.7989C40.1211 24.5035 50.8984 13.7246 64.1954 13.7246C77.4908 13.7246 88.2697 24.5035 88.2697 37.7989C88.2697 51.096 77.4908 61.8732 64.1954 61.8732Z" fill="#0B30F1"/>
<path d="M48.1499 72.5723H37.4496C25.6324 72.5723 16.0508 82.1538 16.0508 93.9711V112.696H48.1499V72.5723Z" fill="#7288FF"/>
<path d="M80.2461 112.696H112.345V93.9711C112.345 82.1538 102.764 72.5723 90.9463 72.5723H80.2461V112.696Z" fill="#7288FF"/>
</svg>
